<svg xmlns="http://www.w3.org/2000/svg" viewBox="0 0 512 512"><path d="M498.4 433.4l-96-96c-1.4-1.4-3.3-2.2-5.3-2.2s-3.9 0.8-5.3 2.2l-3.9 3.9 -26.3-26.3c55.5-77.8 48.3-186.8-21.4-256.6C302.6 20.7 252.6 0 199.3 0 146.1 0 96 20.7 58.4 58.4c-77.7 77.7-77.7 204.2 0 281.9 37.6 37.7 87.7 58.4 141 58.4 42 0 82.1-12.9 115.6-36.9l26.3 26.3 -3.9 3.9c-1.4 1.4-2.2 3.3-2.2 5.3 0 2 0.8 3.9 2.2 5.3l96 96c8.7 8.7 20.3 13.5 32.6 13.5 12.3 0 23.9-4.8 32.6-13.5 8.7-8.7 13.5-20.3 13.5-32.6C511.9 453.6 507.1 442.1 498.4 433.4zM311.1 345.9c-0.2 0.1-0.3 0.3-0.5 0.4 -31.9 24.2-70.5 37.3-111.2 37.3 -49.2 0-95.5-19.2-130.3-54 -71.9-71.9-71.9-188.8 0-260.7 34.8-34.8 81.1-54 130.3-54 49.2 0 95.5 19.2 130.3 54 65.9 65.9 71.4 169.6 16.5 241.7 -0.1 0.1-0.2 0.2-0.3 0.4 -5 6.5-10.5 12.8-16.2 18.5C323.8 335.5 317.6 340.9 311.1 345.9zM326.9 352.5c4.6-3.9 9.1-7.9 13.4-12.2 4.3-4.3 8.4-8.8 12.2-13.3l24.9 24.9 -25.6 25.6L326.9 352.5zM487.8 487.9C487.8 487.9 487.8 487.9 487.8 487.9c-12.1 12.1-31.8 12.1-43.9 0l-90.7-90.7 3.9-3.9 36.2-36.2c0 0 0 0 0 0l3.9-3.9 90.7 90.7c5.9 5.9 9.1 13.7 9.1 22C496.9 474.2 493.7 482 487.8 487.9z"/><path d="M199.3 41.7c-50.2 0-97.7 24.3-127.1 65 -2.4 3.4-1.7 8 1.7 10.5 3.4 2.4 8 1.7 10.5-1.7C111 78.7 154 56.8 199.3 56.8c78.1 0 141.7 63.6 141.7 141.7 0 10.1-1.1 20.2-3.2 30 -0.9 4.1 1.7 8 5.8 8.9 0.5 0.1 1.1 0.2 1.6 0.2 3.5 0 6.6-2.4 7.3-5.9 2.3-10.8 3.5-22 3.5-33.2C356 112.1 285.7 41.7 199.3 41.7z"/><path d="M341.1 245.6c-3.9-1.5-8.2 0.4-9.7 4.3 -7.2 18.4-18 34.9-31.8 48.7 -7.5-16.9-19.8-32.1-35.4-43.6 -10.1-7.4-21.4-13.1-33.2-16.9 14.6-10.1 24.2-27 24.2-46v-41.7c0-29.9-23.5-54.3-53-55.8 -1 0-1.9-0.1-2.9-0.1h0c-1.3 0-2.5 0.1-3.7 0.1 -29.1 1.9-52.2 26.2-52.2 55.8v41.7c0 19.1 9.6 35.9 24.2 46 -11.8 3.7-23.1 9.4-33.2 16.9 -15.6 11.5-27.8 26.6-35.4 43.5 -25.6-25.7-41.5-61.1-41.5-100.1 0-21.6 4.7-42.4 14.1-61.7 1.8-3.7 0.2-8.2-3.5-10s-8.2-0.2-10 3.5c-10.4 21.4-15.6 44.3-15.6 68.2 0 47.1 20.9 89.4 53.9 118.2 0.2 0.2 0.5 0.5 0.7 0.7 12.3 10.6 26.2 19.1 40.9 25.4 0.1 0 0.2 0.1 0.3 0.1 0.3 0.1 0.7 0.3 1.1 0.4 13.3 5.5 27.4 9.2 42.2 10.9 0.1 0 0.2 0 0.4 0 0.9 0.1 1.9 0.2 2.9 0.3 0.3 0 0.7 0.1 1 0.1 0.8 0.1 1.6 0.1 2.4 0.2 0.5 0 1 0.1 1.5 0.1 0.7 0 1.4 0.1 2.1 0.1 0.7 0 1.4 0.1 2.1 0.1 0.5 0 1 0 1.6 0.1 1.3 0 2.5 0 3.8 0 1.8 0 3.5 0 5.3-0.1 0.4 0 0.8 0 1.2 0 1.6-0.1 3.1-0.2 4.7-0.3 0.7 0 1.3-0.1 2-0.2 1-0.1 2.1-0.2 3.1-0.3 1.3-0.1 2.7-0.3 4-0.5 0.4-0.1 0.8-0.1 1.2-0.2 21.4-2.9 41.8-10.2 60.3-21.5 0.4-0.2 0.7-0.4 1.1-0.7 0.8-0.5 1.7-1 2.5-1.6 1.1-0.7 2.2-1.4 3.2-2.2 0.3-0.2 0.6-0.4 0.9-0.6 0.3-0.2 0.7-0.5 1-0.7 0.9-0.7 1.9-1.3 2.8-2 0.7-0.5 1.4-1 2.1-1.6 0.8-0.6 1.5-1.2 2.3-1.8 0.7-0.6 1.4-1.1 2.1-1.7 0.8-0.6 1.6-1.3 2.3-2 0 0 0 0 0 0 19.5-16.7 34.6-37.9 44-62C346.9 251.5 345 247.1 341.1 245.6zM158.4 150.5c0-22.5 18.3-40.9 40.9-40.9s40.9 18.3 40.9 40.9v12.4c-17.2-4.3-24.2-22-24.6-22.8 -1-2.7-3.6-4.7-6.5-4.8 -2.9-0.2-5.7 1.3-7.1 3.9 -0.5 0.9-12.3 21.4-43.6 24.3V150.5zM169.1 333.2l5.2 4.8c-7.5-1.3-14.8-3.3-21.9-5.8 0 0 0 0 0 0 -0.9-0.3-1.8-0.6-2.7-1 -0.2-0.1-0.3-0.1-0.5-0.2 -0.8-0.3-1.5-0.6-2.3-0.9 -0.8-0.3-1.5-0.6-2.3-0.9 -0.2-0.1-0.3-0.1-0.5-0.2 -12-5.1-23.2-11.8-33.3-19.9 10-26.3 32.8-47.2 60-56.3l8.9 17.2 -12.9 55.8C166.3 328.6 167.1 331.4 169.1 333.2zM158.4 192.1v-13.6c25.3-1.9 40.8-13.4 49.1-22.2 5.8 8.5 16.2 19.2 32.7 21.9v14c0 22-17.5 40-39.3 40.9 -0.5 0-1 0-1.5 0h0c-0.1 0-0.1 0-0.2 0 -0.5 0-1 0-1.5 0C175.9 232.2 158.4 214.2 158.4 192.1zM212.8 249.2l-6.4 12.5h-14.1l-6.4-12.5c0.8-0.1 1.5-0.3 2.3-0.4 0.1 0 0.3 0 0.4-0.1 1-0.1 1.9-0.2 2.9-0.3 0.2 0 0.5-0.1 0.7-0.1 0.9-0.1 1.8-0.1 2.7-0.2 0.3 0 0.6 0 0.8-0.1 0.7 0 1.4-0.1 2.2-0.1 0.5 0 0.9 0 1.4 0 0.5 0 0.9 0 1.4 0 0.7 0 1.4 0 2.2 0.1 0.3 0 0.6 0 0.8 0.1 0.9 0.1 1.8 0.1 2.7 0.2 0.2 0 0.5 0.1 0.7 0.1 1 0.1 1.9 0.2 2.9 0.3 0.1 0 0.3 0 0.4 0.1C211.2 248.9 212 249.1 212.8 249.2zM199.6 340.2c-0.1 0-0.2 0-0.3 0 0 0 0 0-0.1 0 -0.1 0-0.2 0-0.3 0l-16.5-15.1 11.2-48.4h11.3l11.2 48.4L199.6 340.2zM285.1 311.2c-0.5 0.4-1 0.8-1.5 1.2 -0.8 0.6-1.6 1.2-2.4 1.8 -0.7 0.5-1.4 1-2.2 1.5 -0.6 0.4-1.2 0.8-1.8 1.2 -1.2 0.8-2.4 1.5-3.6 2.3 -0.3 0.2-0.5 0.3-0.8 0.5 -14.9 9-31.4 15.2-48.5 18.3l5.2-4.8c2-1.8 2.9-4.6 2.2-7.2l-12.9-55.8 8.9-17.2c27.1 9.1 50 30 60 56.3C286.9 309.9 286 310.6 285.1 311.2z"/></svg>